<svg width="150" height="150" fill="none" xmlns="http://www.w3.org/2000/svg">
  <path d="M24.3 35.4h20.5c5.6 0 9.6 1.4 12 4 2.5 2.8 3.8 7.2 3.8 13.3V56c0 7.2-2.6 11.5-7.7 13 3.1.8 5.4 2.7 6.6 5.7 1.3 3 2 7 2 11.8 0 8-1.2 14.2-3.6 18.3-2.4 4.1-6.8 6.2-13 6.2H24.2V35.4zm18 28.4c1.2 0 2-.4 2.5-1.4.5-1 .8-2.4.8-4.1v-7.6c0-2.4-1.1-3.7-3.3-3.7h-3.2v16.8h3.1zm-1.7 34c4 0 6-2 6-5.7v-9.4c0-2.3-.4-4-1.1-5.2-.7-1.2-1.9-1.8-3.6-1.8h-2.8v22h1.5zM66.5 111V35.4h23l6.3 46.1 6.4-46h23.2V111h-13.8V56.5l-8.7 54.5H89.3l-9.2-54.5V111H66.5z" fill="#27272A"/>
</svg>
